<svg xmlns="http://www.w3.org/2000/svg" width="46" height="57" viewBox="0 0 46 57">
  <g id="masakari" transform="translate(0 57) rotate(-90)">
    <rect id="長方形_2" data-name="長方形 2" width="57" height="46" transform="translate(0 0)" fill="#fff" opacity="0"/>
    <path id="パス_8" data-name="パス 8" d="M8.551,47.294l.038.038a3.913,3.913,0,0,0,5.563,0L51.943,9.28a2.388,2.388,0,0,0,0-3.362l-2.264-2.28a2.349,2.349,0,0,0-3.339,0L8.55,41.69a3.982,3.982,0,0,0,0,5.6Z" transform="translate(-7.398 -2.942)" fill="#f4900c"/>
    <path id="パス_9" data-name="パス 9" d="M3.192,9.313l5.6-5.641a2.364,2.364,0,0,1,3.361,0l5.6,5.641c3.372,3.338,6.1,4.81,9.594,4.876.271,2.51-1.054,8.285-3.117,10.613-2.681,3.025-7.2,3.981-11.445,3.915a12.6,12.6,0,0,0-3.995-10.38L3.194,12.7a2.4,2.4,0,0,1,0-3.382Z" transform="translate(25.618 -2.926)" fill="#66757f"/>
    <path id="パス_10" data-name="パス 10" d="M15.178,10.152a17.948,17.948,0,0,0,3.888-.4c1.12,7.9-11.2,20.307-19.047,19.179a29.661,29.661,0,0,0,.6-4.249C7.615,22.432,13.46,16.588,15.178,10.152Z" transform="translate(37.791 1.111)" fill="#ccd6dd"/>
  </g>
</svg>
